<svg width="112" height="112" viewBox="0 0 112 112" fill="none" xmlns="http://www.w3.org/2000/svg">
<rect width="112" height="112" fill="#D9D9D9"/>
<path d="M31.2344 43V67H26.3438V43H31.2344ZM34.0469 58.7188V58.3906C34.0469 57.151 34.224 56.0104 34.5781 54.9688C34.9323 53.9167 35.4531 53.0052 36.1406 52.2344C36.8281 51.4635 37.6719 50.8646 38.6719 50.4375C39.6719 50 40.8177 49.7812 42.1094 49.7812C43.4219 49.7812 44.5781 50 45.5781 50.4375C46.5885 50.8646 47.4375 51.4635 48.125 52.2344C48.8125 53.0052 49.3333 53.9167 49.6875 54.9688C50.0417 56.0104 50.2188 57.151 50.2188 58.3906V58.7188C50.2188 59.9479 50.0417 61.0885 49.6875 62.1406C49.3333 63.1823 48.8125 64.0938 48.125 64.875C47.4375 65.6458 46.5938 66.2448 45.5938 66.6719C44.5938 67.099 43.4427 67.3125 42.1406 67.3125C40.849 67.3125 39.6979 67.099 38.6875 66.6719C37.6771 66.2448 36.8281 65.6458 36.1406 64.875C35.4531 64.0938 34.9323 63.1823 34.5781 62.1406C34.224 61.0885 34.0469 59.9479 34.0469 58.7188ZM38.9375 58.3906V58.7188C38.9375 59.3854 38.9896 60.0104 39.0938 60.5938C39.2083 61.1771 39.3906 61.6875 39.6406 62.125C39.8906 62.5625 40.2188 62.9062 40.625 63.1562C41.0417 63.3958 41.5469 63.5156 42.1406 63.5156C42.7344 63.5156 43.2344 63.3958 43.6406 63.1562C44.0469 62.9062 44.375 62.5625 44.625 62.125C44.875 61.6875 45.0521 61.1771 45.1562 60.5938C45.2708 60.0104 45.3281 59.3854 45.3281 58.7188V58.3906C45.3281 57.7344 45.2708 57.1198 45.1562 56.5469C45.0521 55.9635 44.875 55.4479 44.625 55C44.375 54.5521 44.0417 54.2031 43.625 53.9531C43.2188 53.7031 42.7135 53.5781 42.1094 53.5781C41.526 53.5781 41.0312 53.7031 40.625 53.9531C40.2188 54.2031 39.8906 54.5521 39.6406 55C39.3906 55.4479 39.2083 55.9635 39.0938 56.5469C38.9896 57.1198 38.9375 57.7344 38.9375 58.3906ZM63.4375 50.0938H67.875V66.3906C67.875 67.9427 67.5208 69.2604 66.8125 70.3438C66.1146 71.4271 65.1406 72.25 63.8906 72.8125C62.6406 73.375 61.1771 73.6562 59.5 73.6562C58.7708 73.6562 58.0104 73.5573 57.2188 73.3594C56.4271 73.1719 55.6823 72.8854 54.9844 72.5C54.2865 72.125 53.7031 71.6458 53.2344 71.0625L55.3125 68.1875C55.7917 68.7292 56.3646 69.1667 57.0312 69.5C57.6979 69.8438 58.4583 70.0156 59.3125 70.0156C60.0938 70.0156 60.7552 69.875 61.2969 69.5938C61.8385 69.3125 62.25 68.901 62.5312 68.3594C62.8229 67.8177 62.9688 67.1615 62.9688 66.3906V54.0469L63.4375 50.0938ZM52.1406 58.75V58.4219C52.1406 57.1406 52.2969 55.974 52.6094 54.9219C52.9219 53.8594 53.375 52.9479 53.9688 52.1875C54.5729 51.4167 55.2969 50.8229 56.1406 50.4062C56.9948 49.9896 57.9531 49.7812 59.0156 49.7812C60.1615 49.7812 61.1094 50 61.8594 50.4375C62.6094 50.8646 63.2188 51.4688 63.6875 52.25C64.1562 53.0208 64.526 53.9323 64.7969 54.9844C65.0677 56.026 65.2865 57.1562 65.4531 58.375V58.9375C65.2865 60.1042 65.0469 61.1927 64.7344 62.2031C64.4219 63.2135 64.0156 64.1042 63.5156 64.875C63.0156 65.6354 62.3906 66.2344 61.6406 66.6719C60.901 67.099 60.0156 67.3125 58.9844 67.3125C57.9323 67.3125 56.9844 67.099 56.1406 66.6719C55.2969 66.2448 54.5729 65.6458 53.9688 64.875C53.375 64.1042 52.9219 63.1979 52.6094 62.1562C52.2969 61.1146 52.1406 59.9792 52.1406 58.75ZM57.0156 58.4219V58.75C57.0156 59.4167 57.0781 60.0365 57.2031 60.6094C57.3385 61.1823 57.5365 61.6875 57.7969 62.125C58.0677 62.5625 58.401 62.9062 58.7969 63.1562C59.2031 63.3958 59.6771 63.5156 60.2188 63.5156C61.0104 63.5156 61.651 63.349 62.1406 63.0156C62.6406 62.6719 63.0052 62.1979 63.2344 61.5938C63.474 60.9896 63.599 60.2865 63.6094 59.4844V57.8438C63.6094 57.1771 63.5417 56.5781 63.4062 56.0469C63.2708 55.5156 63.0677 55.0677 62.7969 54.7031C62.5365 54.3385 62.1927 54.0625 61.7656 53.875C61.349 53.6771 60.8438 53.5781 60.25 53.5781C59.7188 53.5781 59.25 53.7031 58.8438 53.9531C58.4375 54.1927 58.099 54.5312 57.8281 54.9688C57.5573 55.4062 57.3542 55.9219 57.2188 56.5156C57.0833 57.099 57.0156 57.7344 57.0156 58.4219ZM70.4219 58.7188V58.3906C70.4219 57.151 70.599 56.0104 70.9531 54.9688C71.3073 53.9167 71.8281 53.0052 72.5156 52.2344C73.2031 51.4635 74.0469 50.8646 75.0469 50.4375C76.0469 50 77.1927 49.7812 78.4844 49.7812C79.7969 49.7812 80.9531 50 81.9531 50.4375C82.9635 50.8646 83.8125 51.4635 84.5 52.2344C85.1875 53.0052 85.7083 53.9167 86.0625 54.9688C86.4167 56.0104 86.5938 57.151 86.5938 58.3906V58.7188C86.5938 59.9479 86.4167 61.0885 86.0625 62.1406C85.7083 63.1823 85.1875 64.0938 84.5 64.875C83.8125 65.6458 82.9688 66.2448 81.9688 66.6719C80.9688 67.099 79.8177 67.3125 78.5156 67.3125C77.224 67.3125 76.0729 67.099 75.0625 66.6719C74.0521 66.2448 73.2031 65.6458 72.5156 64.875C71.8281 64.0938 71.3073 63.1823 70.9531 62.1406C70.599 61.0885 70.4219 59.9479 70.4219 58.7188ZM75.3125 58.3906V58.7188C75.3125 59.3854 75.3646 60.0104 75.4688 60.5938C75.5833 61.1771 75.7656 61.6875 76.0156 62.125C76.2656 62.5625 76.5938 62.9062 77 63.1562C77.4167 63.3958 77.9219 63.5156 78.5156 63.5156C79.1094 63.5156 79.6094 63.3958 80.0156 63.1562C80.4219 62.9062 80.75 62.5625 81 62.125C81.25 61.6875 81.4271 61.1771 81.5312 60.5938C81.6458 60.0104 81.7031 59.3854 81.7031 58.7188V58.3906C81.7031 57.7344 81.6458 57.1198 81.5312 56.5469C81.4271 55.9635 81.25 55.4479 81 55C80.75 54.5521 80.4167 54.2031 80 53.9531C79.5938 53.7031 79.0885 53.5781 78.4844 53.5781C77.901 53.5781 77.4062 53.7031 77 53.9531C76.5938 54.2031 76.2656 54.5521 76.0156 55C75.7656 55.4479 75.5833 55.9635 75.4688 56.5469C75.3646 57.1198 75.3125 57.7344 75.3125 58.3906Z" fill="black"/>
</svg>
