<?xml version="1.0" encoding="utf-8"?>
<!-- Generator: Adobe Illustrator 25.4.1, SVG Export Plug-In . SVG Version: 6.00 Build 0)  -->
<svg version="1.1" id="Слой_1" xmlns="http://www.w3.org/2000/svg" xmlns:xlink="http://www.w3.org/1999/xlink" x="0px" y="0px"
	 viewBox="0 0 495.49 699.38" style="enable-background:new 0 0 495.49 699.38;" xml:space="preserve">
<g>
	<path d="M277.21,699.84c-2.61-0.31-5.21-0.69-7.83-0.9c-22.56-1.8-43.57-8.44-62.67-20.57c-36.89-23.42-60.1-56.4-68.69-99.42
		c-1.85-9.26-2.8-18.62-3.39-28.05c-0.31-5-1.2-9.98-2.01-14.95c-2.26-13.87-4.63-27.73-6.94-41.6
		c-1.82-10.87-3.62-21.75-5.43-32.62c-0.09-0.54-0.26-1.07-0.84-1.68c-9.4,29.52-18.8,59.03-28.21,88.58c-7.62,0-15.04,0-22.77,0
		c-9.54-29.41-19.11-58.9-28.69-88.4c-0.19,0.02-0.38,0.04-0.56,0.05c-4.78,29.38-9.56,58.76-14.33,88.09
		C22.93,548.91,2.46,549,0,548.49c7.56-46.96,15.11-93.93,22.7-141.08c8.29,0,16.48,0,24.96,0c10.53,32.52,21.1,65.15,31.67,97.78
		c0.18,0.01,0.35,0.03,0.53,0.04c2.74-8.08,5.19-16.26,7.81-24.38c2.62-8.13,5.17-16.29,7.75-24.44c2.6-8.22,5.2-16.45,7.81-24.67
		c2.58-8.13,5.18-16.26,7.8-24.51c8.39,0,16.68,0,25.29,0c3.66,21.94,7.32,43.88,11,65.97c1.15-0.5,1.28-1.54,1.67-2.33
		c9.02-18.37,21.85-33.55,38.29-45.68c15.09-11.13,32-18.22,50.26-22.21c11.99-2.62,24.13-3.88,36.39-3.99c0.7-0.01,1.41,0,2.05,0
		c0.53,1.82,0.52,118.04,0.03,121.28c-8.74,0-17.5,0-26.56,0c-0.05-1.02-0.15-2.02-0.15-3.01c0.03-27.9,0.06-55.8,0.1-83.7
		c0-0.94,0-1.88,0-3.14c-2.25,0.36-4.21,0.6-6.14,1c-37.01,7.79-61.26,30.36-74.92,64.99c-4.22,10.7-6.14,21.96-6.91,33.43
		c-1.19,17.73,0.44,35.17,5.93,52.08c12.49,38.46,37.15,65.78,75,80.69c14.78,5.82,30.22,8.42,46.04,7.34
		c37.84-2.56,67.84-19.55,89.8-50.39c12.25-17.2,19.76-36.46,22.72-57.4c2.82-19.96,0.81-39.52-5.36-58.69
		c-7.81-24.25-20.8-45.36-38.26-63.81c-0.6-0.64-1.19-1.28-1.96-2.1c6.83-7.21,13.63-14.37,20.47-21.59
		c0.43,0.38,0.74,0.62,1.01,0.91c14.41,15.47,26.92,32.28,36.14,51.39c7.45,15.44,12.41,31.65,14.92,48.6
		c0.21,1.38,0.68,2.55,1.67,3.6c3.63,3.87,7.56,7.37,12.28,9.86c6.55,3.46,13.42,4.5,20.65,2.57c8.1-2.17,17.78-10.56,17.19-22.71
		c-0.26-5.31-2.09-10.02-5.93-13.76c-1.99-1.94-4.18-3.75-6.51-5.26c-4.15-2.7-8.42-5.22-12.74-7.64
		c-6.22-3.48-12.31-7.12-17.77-11.74c-6.37-5.39-10.83-12.02-12.35-20.28c-2.75-14.91,0.66-27.94,13.16-37.38
		c10.37-7.82,22.04-8.71,34.16-4.66c7.16,2.39,13.25,6.65,18.88,11.59c1.62,1.42,3.16,2.92,4.91,4.55
		c-3.63,3.89-7.14,7.66-10.72,11.51c-1.45-1.32-2.72-2.53-4.05-3.67c-4.88-4.23-10.19-7.75-16.58-9.24
		c-8.01-1.87-15.12-0.24-20.77,5.98c-5.24,5.77-6.27,12.39-3.28,19.58c1.6,3.85,4.17,7.06,7.51,9.48c4.14,2.99,8.43,5.78,12.76,8.48
		c3.52,2.2,7.3,3.99,10.78,6.25c3.81,2.48,7.58,5.08,11.07,7.98c9.05,7.5,13.38,17.22,13.28,29.02
		c-0.11,12.26-4.77,22.35-13.97,30.35c-7.75,6.74-16.94,9.32-27.08,8.99c-7.99-0.26-15.41-2.47-22.35-6.4
		c-0.54-0.31-1.11-0.57-1.96-1.01c-0.05,1.07-0.11,1.92-0.12,2.76c-0.1,12.02-1.17,23.93-3.62,35.71
		c-12.28,59.07-55.6,101.43-110.69,114.4c-8.27,1.95-16.68,2.93-25.13,3.56c-0.94,0.07-1.87,0.3-2.8,0.46
		C284.25,699.84,280.73,699.84,277.21,699.84z"/>
	<path d="M-1.54,119.92c1.03,0.03,2.07,0.08,3.1,0.08c79.08,0,158.16,0,237.24,0c0.95,0,1.9,0,2.8,0
		c0.52,1.97,0.58,23.42,0.06,25.94c-20.3,0-40.65,0-61.17,0c-0.45,1.73-0.86,3.26-1.24,4.79c-13.84,55.8-27.68,111.61-41.48,167.42
		c-0.45,1.84-0.7,3.78-0.71,5.67c-0.05,20.23-0.03,40.45-0.03,60.68c0,0.94,0,1.89,0,2.76c-1.98,0.52-29.58,0.67-32.98,0.19
		c-0.03-0.88-0.08-1.81-0.08-2.74c0-20.47,0.01-40.93-0.03-61.4c0-1.73-0.23-3.51-0.65-5.2C89.33,261.77,75.33,205.44,61.33,149.1
		c-0.23-0.92-0.49-1.84-0.81-3c-1.03-0.03-2.04-0.1-3.06-0.1c-18.47-0.01-36.94,0-55.41-0.01c-1.2,0-2.39-0.11-3.59-0.17
		C-1.54,137.19-1.54,128.55-1.54,119.92z"/>
	<path d="M390.91,145.81c0,1.18,0,1.96,0,2.75c0,12.47-0.02,24.94,0.02,37.41c0,1.42,0.18,2.88,0.52,4.25
		c9.64,38.99,19.32,77.96,28.98,116.94c6.51,26.27,13,52.55,19.5,78.82c0.13,0.53,0.2,1.07,0.34,1.78c-44,0-87.84,0-131.97,0
		c0.16-0.86,0.27-1.62,0.46-2.36c7-28.21,14-56.41,21.01-84.62c9.17-36.88,18.35-73.76,27.5-110.65c0.34-1.38,0.5-2.83,0.5-4.26
		c0.04-12.39,0.02-24.78,0.02-37.17c0-0.86,0-1.72,0-2.88c-35.06,0-69.86,0-104.79,0c0-8.73,0-17.17,0-25.76
		c80.8,0,161.5,0,242.19,0c0.46,1.8,0.63,21.04,0.2,25.67c-2.79,0.11-5.64,0.04-8.48,0.05c-2.96,0.01-5.92,0-8.87,0
		c-2.88,0-5.76,0-8.63,0c-2.88,0-5.76,0-8.63,0c-2.88,0-5.76,0-8.63,0c-2.96,0-5.92,0-8.87,0c-2.88,0-5.76,0-8.63,0s-5.76,0-8.63,0
		c-2.88,0-5.76,0-8.63,0c-2.96,0-5.92,0-8.87,0c-2.88,0-5.76,0-8.63,0C397,145.81,394.14,145.81,390.91,145.81z"/>
	<path d="M375.99,1.27c29.94-0.26,56.88,24.02,56.89,56.86c0.01,31.7-25.53,56.84-56.92,56.91c-31.43,0.07-56.99-25.66-56.89-57.17
		C319.18,26.32,345.14,1.04,375.99,1.27z M405.3,56.77c-9.75,0-19.22,0-28.75,0c0,3.47,0,6.78,0,10.4c5.45,0,10.74,0,16.33,0
		c-2.25,4.71-5.43,7.77-10.14,8.97c-4.19,1.07-8.4,0.94-12.53-0.4c-8.32-2.71-13.9-10.73-13.55-19.42
		c0.36-8.91,6.32-16.24,15.06-18.11c7.43-1.59,14.09,0.22,19.84,5.25c0.7,0.61,1.39,1.23,1.98,1.75c2.62-2.71,5.05-5.22,7.56-7.81
		c-3.74-4.22-8.4-7.43-14.08-9.11c-4.5-1.33-9.1-1.76-13.76-1.37c-6.46,0.54-12.3,2.73-17.22,7.06c-7.95,7-11.58,15.8-10.29,26.31
		c1.52,12.42,8.1,21.11,20.01,25.44c3.79,1.38,7.77,1.75,11.8,1.68c12.27-0.2,21.79-6.83,26.14-18.28
		C405.2,65.19,405.83,61.14,405.3,56.77z"/>
	<path d="M118.92,0c30.82-0.3,56.9,24.96,57,56.49c0.1,31.68-25.23,57.07-56.77,57.23c-31.18,0.16-56.96-25.54-57.02-56.76
		C62.07,25.84,87.66-0.19,118.92,0z M137.23,51.17c0.19,0,0.39,0,0.58,0c2.11,12.3,4.21,24.59,6.31,36.85c3.89,0,7.45,0,11.27,0
		c-3.42-20.32-6.81-40.44-10.22-60.64c-3.86,0-7.51,0-11.33,0c-4.66,13.82-9.31,27.62-13.96,41.43c-0.14-0.01-0.29-0.03-0.43-0.04
		c-4.57-13.77-9.14-27.54-13.78-41.51c-1.91,0-3.73,0-5.56,0c-1.9,0-3.8,0-5.88,0c-3.51,20.33-6.98,40.44-10.45,60.53
		c2.43,0.59,9.55,0.53,11.42-0.07c2.13-12.22,4.27-24.49,6.41-36.77c0.15,0,0.31,0,0.46,0c4.13,12.39,8.26,24.78,12.42,37.25
		c2.87,0,5.5,0.01,8.13,0c2.12-0.01,2.13-0.02,2.83-2.08c2.15-6.35,4.28-12.71,6.42-19.07C133.66,61.75,135.45,56.46,137.23,51.17z"
		/>
</g>
</svg>
